<?xml version="1.0" standalone="no"?>
<!DOCTYPE svg PUBLIC "-//W3C//DTD SVG 20010904//EN"
 "http://www.w3.org/TR/2001/REC-SVG-20010904/DTD/svg10.dtd">
<svg version="1.0" xmlns="http://www.w3.org/2000/svg"
    width="512" height="512" viewBox="0 0 512.000000 512.000000"
    preserveAspectRatio="xMidYMid meet">
    <g transform="translate(0.000000,512.000000) scale(0.100000,-0.100000)"
        fill="#000000" stroke="none">
        <path
            d="M3581 5037 c295 -134 550 -311 819 -572 74 -71 116 -107 93 -80 -92
112 -300 300 -459 412 -167 119 -470 283 -524 283 -16 0 11 -16 71 -43z" />
        <path d="M1908 5013 c7 -3 16 -2 19 1 4 3 -2 6 -13 5 -11 0 -14 -3 -6 -6z" />
        <path d="M1848 5003 c6 -2 18 -2 25 0 6 3 1 5 -13 5 -14 0 -19 -2 -12 -5z" />
        <path d="M1732 4978 c-40 -11 -71 -22 -69 -25 4 -4 158 36 166 43 9 8 -27 2
-97 -18z" />
        <path
            d="M3470 4962 c8 -5 26 -13 40 -16 17 -5 20 -4 10 2 -8 5 -26 13 -40 16
-17 5 -20 4 -10 -2z" />
        <path d="M1592 4933 c-24 -8 -41 -17 -39 -19 4 -5 97 26 97 32 0 6 -11 4 -58
-13z" />
        <path
            d="M2403 4940 c-73 -15 -83 -25 -83 -79 l0 -48 -120 -6 c-66 -3 -125 -9
-130 -12 -15 -9 -13 -152 3 -162 6 -4 78 -6 160 -4 l147 3 0 -50 0 -51 -37 -6
c-94 -14 -197 -38 -287 -66 -104 -32 -127 -48 -36 -24 50 13 294 53 428 70
l52 7 0 -40 0 -39 -99 -11 c-154 -18 -237 -40 -219 -58 4 -3 68 -1 143 6 142
14 421 8 525 -10 449 -77 688 -203 1065 -560 257 -243 257 -244 17 24 -210
234 -477 419 -727 504 -141 48 -433 102 -551 102 -10 0 -14 12 -14 40 l0 40
55 0 55 0 0 60 0 59 133 3 132 3 3 60 c6 107 9 104 -121 107 l-112 3 -3 53
c-3 47 -6 54 -35 69 -37 19 -272 28 -344 13z m94 -117 c-2 -21 -4 -6 -4 32 0
39 2 55 4 38 2 -18 2 -50 0 -70z m110 0 c-2 -21 -4 -6 -4 32 0 39 2 55 4 38 2
-18 2 -50 0 -70z m-201 65 c-3 -13 -6 -40 -6 -61 0 -27 -4 -37 -12 -34 -16 5
-20 99 -4 109 20 14 28 8 22 -14z m44 -38 c0 -33 -4 -60 -10 -60 -6 0 -10 27
-10 60 0 33 4 60 10 60 6 0 10 -27 10 -60z m247 -22 c-2 -18 -4 -6 -4 27 0 33
2 48 4 33 2 -15 2 -42 0 -60z m-597 -103 c0 -25 -4 -45 -10 -45 -11 0 -14 73
-3 83 11 12 13 8 13 -38z m235 35 c4 -6 77 -10 188 -10 145 0 179 -3 169 -12
-17 -17 -208 -23 -399 -13 -131 6 -143 9 -143 26 0 17 8 19 89 19 50 0 93 -4
96 -10z m155 -155 c0 -42 -3 -55 -15 -55 -12 0 -15 13 -15 55 0 42 3 55 15 55
12 0 15 -13 15 -55z" />
        <path d="M3550 4930 c8 -5 20 -10 25 -10 6 0 3 5 -5 10 -8 5 -19 10 -25 10 -5
0 -3 -5 5 -10z" />
        <path
            d="M1596 4825 c-104 -31 -286 -121 -406 -199 -116 -77 -280 -203 -280
-216 0 -5 53 30 118 79 214 163 406 270 587 330 107 35 93 40 -19 6z" />
        <path
            d="M1830 4614 c-313 -105 -660 -336 -881 -586 -145 -165 -143 -173 6
-19 82 84 182 180 223 213 178 146 408 279 629 364 150 57 162 63 143 63 -8 0
-62 -15 -120 -35z" />
        <path
            d="M2064 4559 c-118 -33 -254 -90 -379 -160 -151 -84 -148 -93 6 -16
181 91 375 158 482 166 4 1 7 7 7 15 0 25 -12 25 -116 -5z" />
        <path
            d="M2970 4503 c0 -6 46 -25 103 -43 283 -90 553 -254 821 -499 l40 -36
-32 41 c-99 129 -340 313 -548 418 -141 71 -384 146 -384 119z" />
        <path
            d="M4036 4479 c-14 -11 -26 -28 -26 -36 0 -9 35 -71 79 -137 123 -190
142 -228 135 -265 -6 -27 7 -59 79 -204 105 -210 148 -324 200 -532 37 -148
43 -164 82 -210 53 -63 61 -79 70 -139 3 -27 9 -55 12 -62 3 -8 -1 -14 -9 -14
-15 0 -79 64 -123 124 -18 24 -48 47 -82 63 -56 26 -96 25 -74 -1 17 -20 57
-186 72 -296 13 -100 16 -105 92 -165 l38 -30 1 -100 c0 -55 -7 -138 -15 -185
l-16 -85 24 -25 c14 -15 25 -33 25 -41 0 -53 -165 -423 -240 -539 -81 -125
-225 -280 -375 -406 -91 -76 -283 -201 -399 -260 -57 -29 -106 -62 -131 -89
-33 -36 -58 -50 -150 -84 -208 -76 -385 -116 -562 -129 -89 -6 -98 -9 -98 -27
0 -18 6 -20 70 -17 167 8 413 60 620 132 206 72 482 230 715 410 111 86 370
340 427 420 116 162 186 324 247 571 79 315 85 624 20 959 -58 300 -161 577
-370 995 -71 144 -271 425 -302 425 -5 0 -21 -9 -36 -21z" />
        <path
            d="M903 4342 c-79 -72 -203 -214 -203 -232 0 -16 29 -50 43 -50 4 0 65
58 136 130 l129 130 -18 32 c-9 18 -21 33 -26 35 -5 1 -32 -19 -61 -45z" />
        <path
            d="M2035 4315 c-121 -31 -218 -72 -301 -127 -38 -25 -100 -62 -139 -82
-241 -125 -497 -401 -646 -697 -28 -56 -66 -123 -84 -148 -40 -56 -57 -106
-87 -252 -21 -102 -23 -141 -23 -379 1 -291 10 -361 75 -559 51 -158 181 -393
254 -460 51 -47 22 -62 -54 -27 -26 12 -102 128 -175 267 -115 221 -175 528
-175 895 l0 141 -56 59 -55 59 7 50 c12 90 51 230 92 329 46 110 47 130 1 29
-57 -126 -109 -311 -109 -385 0 -24 12 -44 53 -87 l54 -56 6 -215 c9 -330 48
-549 139 -778 54 -135 53 -132 29 -102 -22 28 -99 217 -154 380 -59 173 -79
292 -86 499 -4 123 -10 186 -17 188 -17 6 -24 -32 -24 -128 0 -244 32 -399
153 -744 4 -11 -6 7 -22 39 -28 55 -95 136 -113 136 -10 0 13 -59 67 -176 53
-114 144 -250 232 -346 37 -41 95 -112 128 -158 125 -173 357 -391 552 -516
45 -29 85 -60 90 -69 13 -23 211 -108 344 -149 210 -63 341 -80 619 -80 283 0
393 15 604 84 154 51 154 51 132 84 -9 14 -23 26 -30 26 -8 0 -52 -16 -98 -35
-52 -23 -92 -34 -106 -30 -13 3 -74 -5 -135 -19 -182 -40 -288 -49 -510 -43
-221 6 -353 27 -514 83 l-83 29 -218 210 c-120 116 -270 258 -333 316 -209
194 -382 455 -463 700 -68 203 -91 387 -83 639 6 172 15 240 48 378 26 109 36
129 70 141 16 5 29 16 29 23 0 28 101 219 170 323 90 134 299 348 435 443 160
113 351 212 540 279 70 25 102 43 75 43 -8 -1 -55 -12 -105 -25z m-690 -3071
c39 -33 111 -88 160 -123 156 -112 190 -147 70 -74 -175 107 -393 299 -485
428 -7 11 31 -23 86 -76 54 -53 131 -123 169 -155z" />
        <path
            d="M2395 4290 c-480 -42 -942 -315 -1212 -715 -111 -165 -192 -366 -240
-595 -36 -171 -38 -413 -5 -535 52 -192 153 -453 217 -560 19 -32 35 -61 35
-66 0 -5 -16 -9 -35 -9 -35 0 -35 0 -103 138 -152 308 -214 618 -183 922 23
220 22 212 6 145 -8 -33 -20 -120 -27 -193 -28 -301 46 -653 204 -971 127
-257 292 -448 563 -649 172 -129 326 -212 491 -265 117 -38 283 -71 330 -65
l29 3 -26 18 c-14 9 -79 31 -145 47 -302 77 -550 190 -759 346 -123 91 -345
340 -404 453 -15 28 -3 41 41 41 23 0 35 -12 74 -71 80 -121 218 -261 362
-367 347 -256 630 -347 1004 -322 437 30 806 196 1077 486 149 160 340 484
401 682 59 193 82 428 61 627 -14 131 -74 410 -104 480 -27 65 -99 185 -156
260 -59 79 -227 244 -331 325 -45 36 -92 73 -104 82 -12 10 34 -10 102 -43
105 -52 136 -73 211 -145 153 -146 277 -349 360 -589 26 -75 43 -111 54 -113
26 -5 21 30 -22 159 -86 254 -219 459 -394 609 -92 79 -357 256 -464 309 -54
28 -109 46 -163 56 -45 8 -127 25 -183 39 -184 44 -390 61 -562 46z m394 -36
c181 -26 361 -100 536 -218 107 -72 317 -251 422 -358 110 -114 232 -288 277
-396 36 -86 83 -294 97 -432 45 -452 -113 -904 -458 -1304 -169 -195 -424
-347 -705 -420 -320 -83 -679 -72 -958 29 -114 42 -379 179 -368 191 2 1 55
-23 118 -55 144 -74 283 -126 425 -159 102 -25 127 -27 340 -27 217 0 237 2
350 29 290 68 504 179 693 360 169 162 281 317 382 529 103 217 138 361 147
597 10 265 -30 457 -142 685 -148 303 -463 618 -772 774 -253 127 -469 170
-748 151 -427 -31 -808 -227 -1092 -562 -221 -261 -344 -585 -360 -948 -10
-226 30 -402 143 -637 42 -88 58 -112 76 -115 15 -2 55 -46 126 -138 276 -361
541 -542 887 -606 150 -28 453 -26 592 4 117 25 251 71 338 114 130 66 339
216 351 253 3 11 25 40 48 65 190 202 315 422 375 657 25 97 46 272 34 284 -5
5 -14 -38 -21 -99 -25 -220 -94 -407 -222 -600 -43 -64 -115 -157 -159 -205
-45 -48 -79 -92 -77 -96 6 -9 -87 -86 -179 -148 -143 -98 -317 -170 -500 -208
-126 -27 -359 -31 -506 -10 -167 23 -271 55 -401 121 -120 62 -197 115 -306
211 -111 100 -291 331 -307 396 -6 22 -1 28 38 51 46 27 62 32 52 16 -8 -13
44 -112 103 -195 126 -177 288 -313 501 -420 71 -35 94 -26 115 46 9 29 16 60
16 69 0 11 -34 35 -96 68 -52 29 -98 52 -100 52 -3 0 -14 -9 -26 -20 -20 -19
-22 -19 -52 -2 -17 9 -85 71 -151 137 -137 138 -238 283 -215 310 19 23 25 19
54 -35 64 -117 210 -285 313 -358 l32 -22 28 36 28 37 -45 36 c-101 81 -176
161 -233 249 -36 54 -67 92 -77 92 -19 0 -57 73 -89 170 -34 103 -51 223 -51
360 0 191 28 314 116 512 33 74 34 79 19 108 -8 16 -19 30 -23 30 -4 0 -23 13
-42 29 l-34 29 41 53 c65 87 166 190 242 249 39 30 71 60 71 66 0 23 -48 57
-73 50 -31 -7 -159 -117 -223 -192 -60 -69 -164 -212 -164 -225 0 -5 6 -9 14
-9 28 0 26 -19 -8 -82 -70 -128 -118 -316 -132 -520 l-6 -88 -55 0 -55 0 7
-77 c10 -112 40 -260 80 -402 42 -145 43 -197 2 -108 -41 90 -85 237 -104 345
-23 135 -23 388 1 507 21 112 63 252 77 261 24 15 27 -14 9 -74 -44 -141 -84
-422 -60 -422 5 0 10 22 10 49 0 119 49 351 96 460 28 64 29 69 8 92 -15 17
-14 23 21 86 61 111 167 243 275 344 56 52 130 121 164 154 108 104 376 224
571 256 50 8 87 19 98 31 16 16 36 18 200 17 100 -1 196 -5 212 -9 28 -7 29
-8 5 -10 -14 -1 25 -14 85 -29 281 -71 548 -232 771 -463 199 -207 321 -437
381 -718 25 -118 25 -442 -1 -585 -65 -361 -261 -679 -563 -913 -286 -223
-598 -322 -973 -309 -218 7 -397 55 -610 162 -160 80 -366 233 -510 379 -41
42 -83 76 -93 76 -14 0 -18 5 -14 20 3 11 -5 32 -20 52 -65 87 -160 305 -230
528 l-48 155 0 195 c1 163 4 211 23 293 114 511 400 881 861 1111 152 76 356
139 516 159 85 11 347 6 444 -9z m572 -157 c13 -10 6 -8 -17 5 -22 13 -52 31
-65 41 -13 10 -6 8 17 -5 22 -13 52 -31 65 -41z m-1806 -275 c-6 -4 -61 -57
-124 -117 -63 -61 -101 -92 -84 -70 42 54 190 195 205 195 7 0 8 -3 3 -8z
m-205 -1136 c0 -8 -5 -18 -10 -21 -6 -4 -8 -15 -5 -25 7 -23 -11 -35 -30 -20
-18 15 -19 52 -3 68 17 17 48 15 48 -2z m-70 -36 c0 -16 -4 -32 -10 -35 -6 -4
-10 10 -10 35 0 25 4 39 10 35 6 -3 10 -19 10 -35z m-60 -92 c0 -84 25 -223
59 -329 l28 -86 -42 -21 -42 -20 -32 109 c-33 113 -71 316 -71 375 l0 34 50 0
50 0 0 -62z" />
        <path d="M2688 4153 c6 -2 18 -2 25 0 6 3 1 5 -13 5 -14 0 -19 -2 -12 -5z" />
        <path
            d="M2432 4131 c-9 -6 -11 -19 -7 -45 7 -36 7 -36 -28 -36 -115 0 -322
-57 -473 -131 -118 -57 -141 -77 -124 -108 14 -27 32 -26 83 3 115 67 335 135
485 151 l62 7 0 -85 0 -84 -77 -6 c-116 -9 -226 -41 -340 -98 -90 -45 -100
-53 -91 -69 12 -19 5 -50 -11 -50 -5 0 -19 16 -31 35 -12 19 -26 35 -32 35
-47 0 -342 -309 -324 -339 3 -5 32 -24 64 -41 31 -18 83 -50 114 -72 l58 -39
-36 -72 c-82 -162 -129 -368 -88 -384 8 -3 20 -1 27 6 6 6 43 11 83 11 l71 0
12 60 c39 199 183 385 374 481 81 41 176 69 240 69 l37 0 0 380 c0 312 2 380
13 380 20 0 27 -196 27 -762 0 -263 4 -478 8 -478 15 0 72 66 65 74 -5 4 -3 6
3 4 11 -3 114 128 114 145 0 4 -25 20 -56 34 l-56 25 7 177 c4 97 9 178 11
180 16 18 255 -79 285 -115 9 -11 6 -22 -14 -53 -25 -37 -25 -40 -8 -55 10 -9
26 -16 36 -16 27 0 148 -129 188 -201 33 -60 78 -179 92 -241 5 -26 8 -28 61
-28 l55 0 -7 38 c-11 66 -54 185 -90 250 -39 70 -142 201 -176 225 -13 9 -36
27 -51 40 l-28 24 30 52 c47 79 39 95 -17 33 l-47 -54 -68 40 c-38 22 -106 52
-153 67 l-84 27 0 68 c0 53 4 73 21 94 24 31 21 86 -6 116 -17 19 -21 144 -6
169 7 11 25 13 83 8 142 -13 317 -73 468 -161 l61 -36 30 22 30 23 -27 22
c-39 31 -206 117 -289 148 -86 32 -225 64 -282 65 -23 0 -47 6 -53 13 -5 6
-19 24 -31 40 -19 25 -25 27 -97 27 -42 0 -83 -4 -90 -9z m138 -326 c0 -247
-2 -285 -15 -285 -13 0 -15 38 -15 285 0 247 2 285 15 285 13 0 15 -38 15
-285z m-124 -132 c-3 -21 -6 -63 -6 -94 l0 -56 -63 -6 c-74 -7 -188 -46 -275
-94 -59 -32 -65 -34 -81 -19 -20 19 -36 9 -19 -11 9 -11 6 -17 -13 -30 -13 -9
-58 -50 -100 -90 -68 -66 -79 -73 -116 -73 -55 0 -94 31 -87 68 4 23 0 30 -27
45 -17 10 -29 20 -26 23 3 4 18 -2 33 -13 l27 -20 65 69 c117 124 303 245 449
293 52 17 180 43 222 44 22 1 23 -2 17 -36z" />
        <path
            d="M2856 3881 c5 -5 34 -17 64 -26 74 -24 168 -67 242 -110 68 -40 105
-43 43 -3 -69 43 -156 84 -248 117 -91 32 -119 38 -101 22z" />
        <path
            d="M3310 3813 c0 -5 36 -37 79 -71 287 -222 478 -549 522 -890 6 -48 14
-107 17 -132 7 -43 7 -43 10 23 8 188 -87 476 -227 689 -28 42 -86 113 -128
158 -102 109 -273 248 -273 223z" />
        <path
            d="M2738 3767 l22 -23 -25 -34 c-14 -19 -25 -37 -25 -40 0 -4 33 -14 73
-24 156 -37 334 -138 472 -268 69 -65 78 -77 66 -91 -11 -14 -3 -30 52 -114
51 -77 127 -219 127 -238 0 -1 -9 -5 -19 -8 -19 -5 -19 -7 -4 -68 26 -102 23
-321 -6 -436 -12 -51 -26 -93 -29 -93 -4 0 -29 13 -57 29 l-50 29 2 98 c1 80
0 89 -6 49 -27 -171 -115 -350 -223 -451 -23 -23 -71 -60 -105 -83 -35 -23
-63 -44 -63 -46 0 -3 8 -23 17 -46 l16 -42 -30 -27 c-62 -56 -216 -100 -374
-107 -125 -6 -213 5 -313 39 -67 22 -176 77 -176 87 0 4 14 29 30 55 20 30 29
55 25 67 -5 16 -51 53 -101 82 -7 4 -27 -13 -47 -38 l-35 -45 -54 58 c-68 74
-120 153 -164 248 -37 80 -74 208 -74 256 0 44 -17 68 -47 68 l-26 0 6 -67 c4
-38 14 -95 23 -128 29 -108 31 -99 -26 -124 -29 -13 -56 -19 -60 -14 -10 12
-30 88 -51 193 l-19 95 5 -70 c4 -64 46 -239 59 -253 4 -3 33 7 66 23 33 16
61 27 63 24 2 -2 17 -31 34 -65 46 -94 98 -167 173 -243 38 -38 70 -79 72 -92
6 -48 216 -165 364 -204 145 -38 351 -36 501 5 40 11 76 20 79 20 3 0 12 -16
20 -36 14 -32 18 -36 44 -31 21 5 31 1 42 -14 13 -21 14 -20 91 19 178 93 366
258 466 411 58 89 58 97 -1 122 -21 9 -33 9 -35 3 -2 -6 -26 -46 -53 -90 -58
-94 -133 -184 -212 -254 l-57 -51 -26 41 c-40 63 -40 64 14 109 64 54 157 169
204 254 l37 66 33 -19 c17 -10 49 -26 70 -35 l38 -16 10 31 c10 27 15 30 55
30 51 0 67 18 89 102 42 159 40 369 -6 553 -45 182 -204 443 -356 585 -153
143 -372 252 -592 294 l-35 6 22 -23z m903 -1079 c0 -10 2 -10 6 0 8 20 22 14
38 -18 19 -37 19 -40 -5 -40 -12 0 -20 7 -21 18 -1 15 -2 15 -6 0 -2 -9 -11
-19 -19 -22 -11 -4 -14 4 -14 34 0 22 5 40 10 40 6 0 10 -6 11 -12z" />
        <path
            d="M3335 3648 c142 -112 275 -286 351 -458 64 -146 114 -347 114 -462 0
-22 5 -38 11 -38 8 0 10 21 5 73 -28 285 -131 537 -304 743 -56 67 -181 174
-203 174 -7 0 4 -14 26 -32z" />
        <path
            d="M1593 3123 c-51 -79 -87 -168 -107 -266 -18 -88 -20 -121 -6 -112 6
3 10 19 10 34 0 76 63 254 120 336 17 25 30 51 27 58 -2 7 -22 -16 -44 -50z" />
        <path d="M1662 3168 c5 -15 28 -23 28 -10 0 5 -7 13 -16 16 -10 4 -14 1 -12
-6z" />
        <path
            d="M2812 3083 c-131 -145 -232 -277 -225 -293 13 -30 15 -88 3 -110 -6
-12 -32 -31 -56 -41 -24 -11 -44 -24 -44 -29 0 -21 -33 -8 -71 28 -69 64 -62
157 15 203 32 18 33 23 40 96 3 42 6 104 6 138 l0 62 -47 -8 c-188 -31 -334
-175 -364 -360 -28 -174 67 -355 229 -434 33 -16 61 -35 61 -41 1 -7 40 -10
119 -10 110 1 121 3 185 33 136 65 237 195 255 331 17 121 -12 228 -89 329
l-40 54 51 64 c27 36 48 65 46 65 -3 0 -36 -35 -74 -77z m-394 -35 c7 -7 12
-21 11 -32 0 -15 -2 -17 -6 -6 -3 8 -12 23 -21 33 -17 19 -3 24 16 5z m362
-170 c29 -47 25 -58 -5 -14 -25 37 -29 46 -20 46 3 0 14 -15 25 -32z m-540
-28 c-6 -11 -15 -20 -21 -20 -6 0 -6 7 1 20 6 11 15 20 21 20 6 0 6 -7 -1 -20z
m-40 -140 c0 -5 -25 -10 -55 -10 -30 0 -55 5 -55 10 0 6 25 10 55 10 30 0 55
-4 55 -10z m670 0 c0 -5 -16 -10 -35 -10 -19 0 -35 5 -35 10 0 6 16 10 35 10
19 0 35 -4 35 -10z m-110 -201 c-7 -11 -14 -18 -17 -15 -3 3 0 12 7 21 18 21
23 19 10 -6z m-525 -39 c-16 -16 -31 -28 -33 -25 -7 7 39 55 52 55 5 0 -3 -13
-19 -30z m445 -42 c0 -6 -7 -5 -15 2 -8 7 -15 17 -15 22 0 6 7 5 15 -2 8 -7
15 -17 15 -22z m-173 -45 c-3 -10 -5 -4 -5 12 0 17 2 24 5 18 2 -7 2 -21 0
-30z" />
        <path
            d="M1625 3096 c-54 -92 -115 -289 -94 -302 5 -3 11 1 13 8 1 7 11 45 20
83 13 58 35 109 104 248 2 4 -1 7 -7 7 -5 0 -22 -20 -36 -44z" />
        <path
            d="M2450 2790 c-26 -26 -26 -81 -2 -103 21 -19 42 -22 42 -7 0 6 9 10
20 10 26 0 54 43 45 69 -16 52 -69 67 -105 31z m75 -45 c0 -27 -3 -30 -30 -30
-21 0 -31 5 -33 18 -6 33 6 49 35 45 24 -3 28 -8 28 -33z" />
        <path
            d="M3065 2698 c-2 -7 -6 -49 -8 -93 -13 -219 -187 -421 -414 -480 -68
-18 -191 -19 -265 -4 -55 12 -131 46 -182 82 l-28 20 -54 -59 c-29 -32 -53
-62 -54 -67 0 -4 22 -21 48 -37 27 -16 54 -41 60 -54 21 -48 197 -96 353 -96
323 0 611 211 721 530 27 80 45 235 28 255 -16 20 -198 22 -205 3z m89 -140
c-26 -151 -82 -257 -195 -369 -72 -72 -85 -90 -77 -105 7 -13 3 -12 -11 5 -21
23 -29 47 -12 37 26 -16 167 137 216 234 28 55 65 173 65 206 0 13 4 24 10 24
5 0 7 -14 4 -32z" />
        <path
            d="M1650 2661 c0 -14 28 -21 90 -21 l59 0 6 -37 c24 -154 46 -221 104
-311 50 -76 109 -142 128 -142 8 0 -10 27 -42 63 -94 103 -149 235 -170 405
l-7 52 -84 0 c-46 0 -84 -4 -84 -9z" />
        <path
            d="M3782 2648 c3 -9 32 -14 86 -16 68 -2 82 0 82 13 0 12 -15 15 -86 15
-64 0 -85 -3 -82 -12z" />
        <path
            d="M3818 2594 c-5 -4 -8 -29 -8 -55 0 -52 -30 -216 -53 -292 -8 -26 -12
-49 -7 -52 11 -7 49 129 66 236 15 92 16 178 2 163z" />
        <path
            d="M3620 2175 c0 -3 27 -18 60 -35 33 -17 60 -27 60 -22 0 4 -25 20 -55
35 -57 28 -65 31 -65 22z" />
        <path
            d="M3375 1805 c-82 -85 -197 -167 -317 -226 -38 -18 -68 -37 -68 -42 0
-26 44 -107 59 -107 22 0 153 73 230 128 91 65 193 153 236 207 l37 45 -43 40
c-24 21 -46 39 -49 39 -3 -1 -41 -38 -85 -84z" />
        <path
            d="M2490 1811 c0 -57 3 -71 15 -71 13 0 15 12 13 67 -2 42 -8 68 -15 71
-10 3 -13 -15 -13 -67z" />
        <path
            d="M1960 1695 c16 -19 148 -85 169 -84 9 0 -20 18 -64 40 -44 22 -84 44
-89 50 -16 15 -29 10 -16 -6z" />
        <path
            d="M2175 1570 c-14 -22 -44 -150 -39 -163 9 -23 46 -35 169 -53 89 -14
118 -15 127 -6 13 13 30 155 21 178 -3 8 -15 16 -27 18 -211 39 -241 42 -251
26z" />
        <path
            d="M2785 1564 c-27 -7 -76 -16 -107 -20 -32 -4 -55 -10 -53 -14 3 -5 13
-7 23 -5 134 25 192 39 192 46 0 5 -1 9 -2 8 -2 0 -25 -7 -53 -15z" />
        <path
            d="M2834 1505 c-22 -7 -82 -18 -132 -25 l-92 -13 0 -58 c0 -32 4 -60 10
-64 14 -8 198 21 260 42 66 22 75 36 61 91 -10 37 -15 42 -39 41 -15 -1 -45
-7 -68 -14z" />
        <path d="M1675 4184 c-74 -44 -99 -68 -30 -29 84 48 110 65 100 65 -5 -1 -37
-17 -70 -36z" />
        <path
            d="M1224 4178 c-72 -54 -182 -161 -268 -260 -115 -133 -213 -275 -199
-289 7 -7 18 0 35 23 123 169 194 255 327 391 144 147 176 188 105 135z" />
        <path
            d="M3927 4136 c-9 -7 -17 -19 -17 -26 0 -7 31 -47 68 -89 152 -170 264
-348 341 -542 17 -44 30 -61 62 -78 21 -12 39 -18 39 -12 0 19 -69 189 -108
267 -22 44 -67 120 -100 170 -59 87 -233 303 -256 316 -6 3 -19 1 -29 -6z" />
        <path
            d="M784 4018 c-114 -118 -169 -199 -244 -362 -88 -190 -150 -431 -169
-661 -14 -155 -14 -315 -1 -315 6 0 10 51 10 134 0 305 73 633 197 880 90 179
123 229 227 334 55 56 98 102 95 102 -3 0 -55 -51 -115 -112z" />
        <path
            d="M4547 4099 c-26 -15 -22 -31 40 -131 181 -298 306 -686 347 -1079 9
-79 16 -238 17 -354 2 -219 -4 -273 -61 -505 -34 -143 -36 -126 19 -155 l50
-25 15 53 c73 255 105 452 113 697 6 202 -7 338 -53 561 -26 125 -94 351 -101
333 -2 -6 10 -63 26 -127 30 -115 63 -323 75 -467 11 -128 -10 -64 -34 103
-12 87 -37 224 -57 305 -19 81 -39 165 -43 187 -5 22 -25 81 -45 130 -43 107
-198 419 -226 455 -10 14 -1 -12 22 -58 22 -46 39 -85 37 -87 -2 -2 -25 32
-52 75 -57 94 -65 102 -89 89z m490 -1521 c-2 -18 -4 -4 -4 32 0 36 2 50 4 33
2 -18 2 -48 0 -65z m-10 -150 c-2 -18 -4 -4 -4 32 0 36 2 50 4 33 2 -18 2 -48
0 -65z m-10 -95 c-3 -10 -5 -2 -5 17 0 19 2 27 5 18 2 -10 2 -26 0 -35z m-10
-65 c-3 -7 -5 -2 -5 12 0 14 2 19 5 13 2 -7 2 -19 0 -25z m-10 -60 c-3 -7 -5
-2 -5 12 0 14 2 19 5 13 2 -7 2 -19 0 -25z m-10 -50 c-3 -7 -5 -2 -5 12 0 14
2 19 5 13 2 -7 2 -19 0 -25z m-10 -50 c-3 -7 -5 -2 -5 12 0 14 2 19 5 13 2 -7
2 -19 0 -25z m-10 -40 c-3 -8 -6 -5 -6 6 -1 11 2 17 5 13 3 -3 4 -12 1 -19z" />
        <path
            d="M558 4043 c-28 -33 -87 -132 -133 -223 -43 -87 -46 -89 -71 -80 -34
13 -32 15 -50 -27 -86 -201 -151 -431 -186 -658 -19 -129 -23 -186 -22 -405 1
-140 7 -298 14 -350 19 -152 67 -364 110 -487 33 -96 36 -113 21 -108 -9 3
-25 -1 -35 -8 -17 -12 -17 -16 -2 -50 8 -20 20 -37 27 -37 17 0 89 42 89 52 0
5 -11 35 -25 68 -28 66 -78 197 -106 278 -39 113 -78 416 -60 465 6 16 10 1
16 -58 12 -136 33 -276 57 -375 28 -119 36 -84 9 42 -27 130 -39 244 -47 452
l-7 178 30 -16 30 -15 8 118 c3 65 17 181 30 256 17 104 20 143 12 156 -18 29
55 248 151 454 26 55 50 103 55 106 4 3 36 52 70 110 35 57 70 114 78 127 13
21 12 25 -5 38 -26 19 -40 18 -58 -3z m-216 -442 c-26 -55 -48 -98 -50 -96 -5
4 85 195 92 195 2 0 -17 -45 -42 -99z m-63 -150 c-6 -18 -13 -30 -15 -28 -2 2
1 18 7 36 6 18 13 30 15 28 2 -2 -1 -18 -7 -36z m-42 -123 c-3 -8 -6 -5 -6 6
-1 11 2 17 5 13 3 -3 4 -12 1 -19z m-10 -40 c-3 -8 -6 -5 -6 6 -1 11 2 17 5
13 3 -3 4 -12 1 -19z" />
        <path
            d="M1237 3878 c-92 -96 -184 -216 -250 -326 -77 -131 -65 -125 28 13 84
125 188 258 235 300 31 28 83 95 74 95 -4 0 -43 -37 -87 -82z" />
        <path
            d="M4770 3894 c37 -63 93 -183 134 -288 28 -72 56 -109 56 -74 0 46
-137 314 -197 384 -19 23 -18 19 7 -22z" />
        <path d="M892 3100 c0 -14 2 -19 5 -12 2 6 2 18 0 25 -3 6 -5 1 -5 -13z" />
        <path
            d="M4293 2683 c-8 -3 -13 -26 -13 -61 -1 -141 -53 -383 -110 -509 -37
-81 -184 -321 -257 -420 -111 -148 -370 -370 -559 -477 -215 -123 -483 -198
-756 -215 l-110 -6 47 -34 47 -34 92 6 c116 8 306 48 444 93 277 92 619 298
637 386 10 46 34 96 50 102 8 3 29 1 47 -4 30 -9 36 -7 71 28 93 90 233 309
301 471 55 130 91 267 111 418 29 217 18 281 -42 256z m-249 -875 c-16 -27
-85 -118 -89 -118 -3 0 16 29 42 65 26 36 48 65 50 65 2 0 1 -6 -3 -12z" />
        <path
            d="M283 2624 c-11 -30 6 -298 28 -424 59 -350 227 -721 451 -999 74 -91
318 -341 333 -341 12 0 105 91 105 103 0 4 -24 33 -53 65 -29 31 -64 73 -78
92 -14 19 -76 104 -138 187 -190 259 -292 432 -367 623 -18 47 -33 80 -34 73
-1 -42 173 -457 240 -573 21 -36 68 -107 105 -158 36 -51 65 -99 63 -107 -3
-13 -93 95 -154 184 -63 92 -156 263 -199 365 -107 251 -147 423 -175 761 -7
77 -17 146 -22 153 -16 19 -97 16 -105 -4z m62 -146 c13 -243 50 -433 116
-603 74 -190 242 -479 377 -650 31 -38 45 -61 33 -50 -84 72 -253 329 -356
540 -113 231 -165 424 -185 687 -12 163 -13 198 -1 198 5 0 12 -55 16 -122z" />
        <path d="M452 2540 c0 -19 2 -27 5 -17 2 9 2 25 0 35 -3 9 -5 1 -5 -18z" />
        <path d="M462 2460 c0 -19 2 -27 5 -17 2 9 2 25 0 35 -3 9 -5 1 -5 -18z" />
        <path
            d="M4411 2458 c-14 -35 -48 -247 -42 -257 10 -15 52 -33 65 -28 15 6 38
94 57 210 13 88 9 97 -44 97 -19 0 -30 -7 -36 -22z" />
        <path d="M472 2395 c0 -16 2 -22 5 -12 2 9 2 23 0 30 -3 6 -5 -1 -5 -18z" />
        <path d="M482 2335 c0 -16 2 -22 5 -12 2 9 2 23 0 30 -3 6 -5 -1 -5 -18z" />
        <path d="M491 2291 c-1 -19 40 -193 45 -188 2 2 -7 48 -20 103 -13 54 -25 93
-25 85z" />
        <path
            d="M76 2107 c16 -79 56 -216 84 -291 39 -102 30 -54 -15 85 -24 75 -49
163 -56 198 -6 34 -15 64 -19 66 -4 3 -2 -23 6 -58z" />
        <path
            d="M4319 2048 c-75 -177 -213 -401 -325 -528 -106 -120 -102 -114 -79
-102 50 26 235 269 312 410 57 104 127 262 120 269 -3 3 -16 -19 -28 -49z" />
        <path
            d="M4336 1978 c-78 -184 -172 -332 -344 -541 -108 -132 -112 -134 -162
-113 -10 4 -42 -13 -90 -50 -176 -131 -401 -241 -626 -304 -43 -12 -81 -26
-84 -31 -13 -20 -316 -59 -462 -59 -80 0 -98 -3 -98 -15 0 -13 24 -15 154 -15
197 0 344 19 527 70 270 74 423 136 577 233 61 38 65 39 102 27 50 -16 57 -11
225 161 134 138 214 240 304 390 60 101 135 275 125 290 -7 12 -82 48 -99 49
-6 0 -28 -41 -49 -92z" />
        <path
            d="M4743 1972 c-6 -4 -25 -43 -43 -87 -17 -44 -49 -120 -72 -168 -38
-85 -39 -89 -22 -108 9 -10 22 -19 28 -19 6 0 33 -12 61 -25 27 -13 52 -21 56
-17 16 18 29 80 29 138 0 46 8 87 30 146 39 105 38 116 -5 134 -39 16 -45 17
-62 6z" />
        <path
            d="M740 1716 c0 -13 71 -137 124 -216 82 -124 277 -352 290 -340 3 3
-31 46 -75 95 -104 115 -202 245 -274 365 -63 104 -65 107 -65 96z" />
        <path
            d="M293 1540 c-24 -11 -43 -22 -43 -26 0 -39 230 -406 346 -551 66 -82
92 -91 141 -49 34 30 38 23 -99 202 -53 69 -99 137 -103 151 -3 14 -22 50 -40
79 -19 30 -53 90 -75 134 -45 90 -52 93 -127 60z" />
        <path
            d="M4749 1314 c-77 -128 -179 -265 -283 -382 l-78 -87 85 86 c46 47 117
129 157 183 73 98 195 295 187 302 -2 2 -33 -43 -68 -102z" />
        <path
            d="M600 1254 c1 -16 125 -183 199 -266 40 -46 103 -110 140 -142 l66
-59 -66 69 c-100 105 -189 209 -268 313 -39 51 -71 89 -71 85z" />
        <path
            d="M4306 1159 c-145 -164 -320 -316 -513 -444 -75 -49 -88 -65 -53 -65
39 0 296 191 442 329 69 64 248 264 248 275 0 3 -8 6 -18 6 -10 0 -57 -44
-106 -101z" />
        <path
            d="M4390 1163 c-120 -143 -302 -313 -445 -417 -22 -16 -42 -31 -45 -33
-7 -6 33 -73 44 -73 17 1 159 110 265 203 114 100 321 325 321 347 0 9 -58 50
-70 50 -3 0 -35 -35 -70 -77z" />
        <path d="M1205 1064 c110 -100 141 -118 54 -30 -47 47 -92 86 -100 86 -8 -1
13 -25 46 -56z" />
        <path
            d="M2008 895 c100 -47 305 -87 512 -100 152 -10 120 1 -43 14 -189 16
-254 29 -482 95 -11 4 -5 -1 13 -9z" />
        <path
            d="M4425 722 c-122 -119 -123 -125 -2 -17 56 50 136 136 125 135 -2 -1
-57 -53 -123 -118z" />
        <path
            d="M690 818 c0 -19 247 -256 364 -351 126 -101 255 -186 370 -244 164
-82 186 -82 38 1 -236 132 -416 270 -620 473 -73 73 -137 133 -143 133 -5 0
-9 -6 -9 -12z" />
        <path
            d="M1470 782 c0 -13 201 -134 305 -183 254 -119 568 -186 840 -177 81 2
100 6 100 18 0 12 -28 16 -165 21 -359 14 -696 110 -976 279 -81 49 -104 58
-104 42z" />
        <path
            d="M1372 754 c-12 -8 -22 -19 -22 -25 0 -16 192 -136 326 -204 279 -139
594 -215 900 -215 90 0 109 10 99 53 -6 24 -9 25 -143 32 -170 9 -292 26 -441
64 -196 50 -440 159 -606 271 -66 44 -80 47 -113 24z" />
        <path
            d="M955 695 c136 -127 359 -277 542 -366 171 -82 180 -75 12 10 -159 80
-301 170 -437 278 -157 125 -189 145 -117 78z" />
        <path
            d="M3470 666 c-69 -34 -135 -65 -148 -68 -12 -3 -25 -13 -28 -22 -9 -23
14 -73 36 -79 18 -5 312 132 323 150 9 14 -26 78 -43 80 -8 1 -71 -26 -140
-61z" />
        <path
            d="M3543 562 c-81 -41 -113 -62 -113 -75 0 -10 6 -20 14 -23 15 -6 239
97 250 115 9 14 -11 41 -28 40 -6 0 -62 -26 -123 -57z" />
        <path
            d="M3795 543 c-224 -129 -518 -239 -770 -289 l-70 -13 60 5 c141 13 390
93 595 190 110 53 270 141 270 150 0 6 0 6 -85 -43z" />
        <path
            d="M4075 402 c-22 -14 -103 -61 -180 -104 -77 -43 -137 -78 -132 -78 26
0 338 177 352 200 9 14 5 12 -40 -18z" />
        <path
            d="M3285 234 c-261 -69 -531 -100 -802 -91 -152 6 -183 4 -183 -7 0 -22
23 -26 209 -32 267 -10 528 20 756 86 127 36 155 47 155 60 0 15 -35 11 -135
-16z" />
        <path d="M2908 233 c6 -2 18 -2 25 0 6 3 1 5 -13 5 -14 0 -19 -2 -12 -5z" />
    </g>
</svg>